# xmcd
#
# Track frame offsets:
#	150
#	17191
#	29372
#	45734
#	60875
#	77360
#	92983
#	110154
#	127783
#	141431
#	158131
#
# Disc length: 2293 seconds
#
# Revision: 1
# Processed by: cddbd v1.5.2PL0 Copyright (c) Steve Scherf et al.
# Submitted via: audiograbber 1.83.01
#
DISCID=8808f30b
DTITLE=Mike Clifford - All Night, All Day
DYEAR=2004
DGENRE=Country
TTITLE0=Senorita
TTITLE1=Honky-Tonk Road
TTITLE2=All Night, All Day
TTITLE3=Let Me Love You Out Of Leavin'
TTITLE4=Get The 'L' Out Of LA
TTITLE5=Rhinestone In The Rough
TTITLE6=Happy Anniversary
TTITLE7=Between The Highway And The Sky
TTITLE8=I Can Be Lonesome By Myself
TTITLE9=The Lonliest Goodbye
TTITLE10=Goin' Down Swingin'
EXTD=
EXTT0=
EXTT1=
EXTT2=
EXTT3=
EXTT4=
EXTT5=
EXTT6=
EXTT7=
EXTT8=
EXTT9=
EXTT10=
PLAYORDER=
